<?xml version="1.0" encoding="UTF-8" standalone="no"?>
<svg
   xmlns:dc="http://purl.org/dc/elements/1.1/"
   xmlns:cc="http://creativecommons.org/ns#"
   xmlns:rdf="http://www.w3.org/1999/02/22-rdf-syntax-ns#"
   xmlns:svg="http://www.w3.org/2000/svg"
   xmlns="http://www.w3.org/2000/svg"
   xmlns:sodipodi="http://sodipodi.sourceforge.net/DTD/sodipodi-0.dtd"
   xmlns:inkscape="http://www.inkscape.org/namespaces/inkscape"
   width="48"
   height="48"
   viewBox="0 0 12.7 12.7"
   version="1.1"
   id="svg863"
   sodipodi:docname="logo_knockout_left.svg"
   inkscape:version="1.0.1 (3bc2e813f5, 2020-09-07)">
  <sodipodi:namedview
     pagecolor="#ffffff"
     bordercolor="#666666"
     borderopacity="1"
     objecttolerance="10"
     gridtolerance="10"
     guidetolerance="10"
     inkscape:pageopacity="0"
     inkscape:pageshadow="2"
     inkscape:window-width="1920"
     inkscape:window-height="1009"
     id="namedview7"
     showgrid="false"
     inkscape:zoom="15.729167"
     inkscape:cx="30.325828"
     inkscape:cy="23.809272"
     inkscape:window-x="0"
     inkscape:window-y="0"
     inkscape:window-maximized="1"
     inkscape:current-layer="svg863"
     units="px"
     inkscape:document-rotation="0" />
  <defs
     id="defs857" />
  <metadata
     id="metadata860">
    <rdf:RDF>
      <cc:Work
         rdf:about="">
        <dc:format>image/svg+xml</dc:format>
        <dc:type
           rdf:resource="http://purl.org/dc/dcmitype/StillImage" />
        <dc:title></dc:title>
      </cc:Work>
    </rdf:RDF>
    <rdf:RDF>
      <cc:Work
         rdf:about="">
        <dc:title />
      </cc:Work>
    </rdf:RDF>
    <rdf:RDF>
      <cc:Work
         rdf:about="">
        <dc:title />
      </cc:Work>
    </rdf:RDF>
    <rdf:RDF>
      <cc:Work
         rdf:about="">
        <dc:title />
      </cc:Work>
    </rdf:RDF>
  </metadata>
  <path
     d="M 3.8658165,5.2838214 C 3.1857478,5.2702414 2.487424,5.7653549 2.2500411,6.4018341 2.0529752,6.9960149 2.1162892,7.5888599 2.383036,8.1218194 2.478007,8.2760971 2.6021861,8.4441775 2.6021861,8.4441775 2.741281,8.6071375 2.8646809,8.6763733 3.0010375,8.7413792 3.1278435,8.8019327 3.1958771,8.8103923 3.2053609,8.9933884 3.0113895,9.0140924 2.8442218,9.0837734 2.679837,9.1884062 3.4797437,10.2216 4.7054614,10.908169 6.0953636,10.983193 6.089709,10.946905 6.0800026,10.897038 6.0564936,10.824685 5.9834288,10.527038 5.9483656,10.442219 5.8929993,10.267683 5.7895241,9.9929657 5.7283919,9.7892657 5.4701046,9.6044886 5.2129528,9.3696213 4.811007,9.1592426 4.4993571,9.0334606 c 0,0 -0.020927,-0.1678578 -0.043701,-0.2865158 C 4.7019885,8.6518848 5.4040079,8.2796591 5.5387838,7.794341 5.5936827,7.1017608 5.1233248,5.9868648 4.5220423,5.4803975 4.3171401,5.3492726 4.0925135,5.2882739 3.8658165,5.2838214 Z m 0.6577174,0.9554979 c 0.040584,-2.226e-4 0.09063,0.024266 0.1424119,0.081035 0.068278,0.1046328 0.1634499,0.3415037 0.03188,0.4089584 C 4.543993,6.7257506 4.5217084,6.6068699 4.4723306,6.5184886 4.3903608,6.359981 4.4342176,6.2397646 4.5235339,6.2393193 Z"
     style="color:#000000;font-style:normal;font-variant:normal;font-weight:normal;font-stretch:normal;font-size:medium;line-height:normal;font-family:sans-serif;font-variant-ligatures:normal;font-variant-position:normal;font-variant-caps:normal;font-variant-numeric:normal;font-variant-alternates:normal;font-variant-east-asian:normal;font-feature-settings:normal;font-variation-settings:normal;text-indent:0;text-align:start;text-decoration:none;text-decoration-line:none;text-decoration-style:solid;text-decoration-color:#000000;letter-spacing:normal;word-spacing:normal;text-transform:none;writing-mode:lr-tb;direction:ltr;text-orientation:mixed;dominant-baseline:auto;baseline-shift:baseline;text-anchor:start;white-space:normal;shape-padding:0;shape-margin:0;inline-size:0;clip-rule:nonzero;display:inline;overflow:visible;visibility:visible;opacity:1;isolation:auto;mix-blend-mode:normal;color-interpolation:sRGB;color-interpolation-filters:linearRGB;solid-color:#000000;solid-opacity:1;vector-effect:none;fill:#000000;fill-opacity:1;fill-rule:nonzero;stroke:none;stroke-width:7.64648;stroke-linecap:butt;stroke-linejoin:miter;stroke-miterlimit:4;stroke-dasharray:none;stroke-dashoffset:0;stroke-opacity:1;color-rendering:auto;image-rendering:auto;shape-rendering:auto;text-rendering:auto;enable-background:accumulate;stop-color:#000000;stop-opacity:1"
     id="layer1" />
  <ellipse
     style="fill:none;stroke:#000000;stroke-width:0.529167"
     id="path913"
     cx="3.3065696"
     cy="2.48771"
     rx="1.6494162"
     ry="1.8112518" />
</svg>
