<?xml version="1.0" encoding="UTF-8" standalone="no"?>
<svg
   xmlns:dc="http://purl.org/dc/elements/1.1/"
   xmlns:cc="http://creativecommons.org/ns#"
   xmlns:rdf="http://www.w3.org/1999/02/22-rdf-syntax-ns#"
   xmlns:svg="http://www.w3.org/2000/svg"
   xmlns="http://www.w3.org/2000/svg"
   xmlns:sodipodi="http://sodipodi.sourceforge.net/DTD/sodipodi-0.dtd"
   xmlns:inkscape="http://www.inkscape.org/namespaces/inkscape"
   width="48"
   height="48"
   viewBox="0 0 12.7 12.7"
   version="1.1"
   id="svg863"
   sodipodi:docname="logo_knockout_plain.svg"
   inkscape:version="1.0.1 (3bc2e813f5, 2020-09-07)">
  <sodipodi:namedview
     pagecolor="#ffffff"
     bordercolor="#666666"
     borderopacity="1"
     objecttolerance="10"
     gridtolerance="10"
     guidetolerance="10"
     inkscape:pageopacity="0"
     inkscape:pageshadow="2"
     inkscape:window-width="1920"
     inkscape:window-height="1009"
     id="namedview7"
     showgrid="false"
     inkscape:zoom="15.729167"
     inkscape:cx="30.325828"
     inkscape:cy="21.456954"
     inkscape:window-x="0"
     inkscape:window-y="0"
     inkscape:window-maximized="1"
     inkscape:current-layer="svg863"
     units="px"
     inkscape:document-rotation="0" />
  <defs
     id="defs857" />
  <metadata
     id="metadata860">
    <rdf:RDF>
      <cc:Work
         rdf:about="">
        <dc:format>image/svg+xml</dc:format>
        <dc:type
           rdf:resource="http://purl.org/dc/dcmitype/StillImage" />
        <dc:title />
      </cc:Work>
    </rdf:RDF>
    <rdf:RDF>
      <cc:Work
         rdf:about="">
        <dc:title />
      </cc:Work>
    </rdf:RDF>
    <rdf:RDF>
      <cc:Work
         rdf:about="">
        <dc:title />
      </cc:Work>
    </rdf:RDF>
    <rdf:RDF>
      <cc:Work
         rdf:about="">
        <dc:title />
      </cc:Work>
    </rdf:RDF>
  </metadata>
  <path
     d="M 6.3500666,2.03311e-5 C 2.8531268,2.03311e-5 1.26537e-5,2.8531344 1.26537e-5,6.3501856 c 0,3.4967394 2.8531141463,6.3498754 6.3500539463,6.3498754 3.4969621,0 6.3499424,-2.853136 6.3499424,-6.3498754 0,-3.4970512 -2.8529803,-6.3501652689 -6.3499424,-6.3501652689 z m 0,1.5097178689 c 2.6720993,0 4.8406924,2.1682367 4.8406924,4.8404474 0,2.6719212 -2.1685931,4.8400464 -4.8406924,4.8400464 -2.6720994,0 -4.8403361,-2.1681252 -4.8403361,-4.8400464 0,-2.6722107 2.1682367,-4.8404474 4.8403361,-4.8404474 z M 8.8133901,5.2813725 C 8.1028665,5.2827083 7.8042623,5.8254632 7.4754258,6.4494754 7.2401801,6.8998418 7.0130601,7.7369042 7.2669617,8.0207486 7.4398284,8.3155014 7.9143048,8.6253926 8.2332345,8.7451638 8.2154915,8.8869747 8.1971028,9.017877 8.1971028,9.017877 L 8.0188931,9.0906747 C 7.7508995,9.2324856 7.4874252,9.4266128 7.2729502,9.5557341 6.8947583,9.7692296 6.8456031,10.167057 6.7459348,10.458025 6.6656347,10.683097 6.6592677,10.888133 6.6112256,10.98297 7.9986789,10.905943 9.2221259,10.219819 10.020897,9.187961 9.818288,9.0270045 9.6274779,9.0548324 9.4914552,8.968232 L 9.5202181,8.8057173 C 9.652523,8.7794477 9.8148596,8.6955189 10.036993,8.5169752 10.302894,8.1963981 10.534132,7.7115252 10.548135,7.2502504 10.697471,6.2660341 9.8550876,5.3120945 8.8834495,5.2829309 c -0.023798,-0.00111 -0.047152,-0.00156 -0.070059,-0.00156 z m -4.9475736,0.00245 C 3.1857478,5.2702414 2.487424,5.7653549 2.2500411,6.4018341 2.0529752,6.9960149 2.1162892,7.5888599 2.383036,8.1218194 2.478007,8.2760971 2.6021861,8.4441775 2.6021861,8.4441775 2.741281,8.6071375 2.8646809,8.6763733 3.0010375,8.7413792 3.1278435,8.8019327 3.1958771,8.8103923 3.2053609,8.9933884 3.0113895,9.0140924 2.8442218,9.0837734 2.679837,9.1884062 3.4797437,10.2216 4.7054614,10.908169 6.0953636,10.983193 6.089709,10.946905 6.0800026,10.897038 6.0564936,10.824685 5.9834288,10.527038 5.9483656,10.442219 5.8929993,10.267683 5.7895241,9.9929657 5.7283919,9.7892657 5.4701046,9.6044886 5.2129528,9.3696213 4.811007,9.1592426 4.4993571,9.0334606 c 0,0 -0.020927,-0.1678578 -0.043701,-0.2865158 C 4.7019885,8.6518848 5.4040079,8.2796591 5.5387838,7.794341 5.5936827,7.1017608 5.1233248,5.9868648 4.5220423,5.4803975 4.3171401,5.3492726 4.0925135,5.2882739 3.8658165,5.2838214 Z m 0.6577174,0.9554979 c 0.040584,-2.226e-4 0.09063,0.024266 0.1424119,0.081035 0.068278,0.1046328 0.1634499,0.3415037 0.03188,0.4089584 C 4.543993,6.7257506 4.5217084,6.6068699 4.4723306,6.5184886 4.3903608,6.359981 4.4342176,6.2397646 4.5235339,6.2393193 Z m 3.6435371,0.00601 C 8.228582,6.2393204 8.2767796,6.2820634 8.255898,6.405619 8.206498,6.5578931 8.1533801,6.7186269 8.00705,6.7290902 H 8.0069383 C 7.8596954,6.6754378 7.9456947,6.4968941 7.9980779,6.3797944 8.0306253,6.3067741 8.1055602,6.2515636 8.167071,6.2453304 Z"
     style="color:#000000;stroke-width:1"
     id="layer1" />
</svg>
