<?xml version="1.0" encoding="UTF-8" standalone="no"?>
<svg
   xmlns:dc="http://purl.org/dc/elements/1.1/"
   xmlns:cc="http://creativecommons.org/ns#"
   xmlns:rdf="http://www.w3.org/1999/02/22-rdf-syntax-ns#"
   xmlns:svg="http://www.w3.org/2000/svg"
   xmlns="http://www.w3.org/2000/svg"
   xmlns:sodipodi="http://sodipodi.sourceforge.net/DTD/sodipodi-0.dtd"
   xmlns:inkscape="http://www.inkscape.org/namespaces/inkscape"
   width="57.047165mm"
   height="57.047169mm"
   viewBox="0 0 57.047165 57.047169"
   version="1.1"
   id="svg863"
   inkscape:version="1.0.1 (3bc2e813f5, 2020-09-07)"
   sodipodi:docname="logo_knockout.svg">
  <defs
     id="defs857" />
  <sodipodi:namedview
     id="base"
     pagecolor="#ffffff"
     bordercolor="#666666"
     borderopacity="1.0"
     inkscape:pageopacity="0.0"
     inkscape:pageshadow="2"
     inkscape:zoom="2.9126482"
     inkscape:cx="107.80567"
     inkscape:cy="107.80567"
     inkscape:document-units="mm"
     inkscape:current-layer="layer1"
     inkscape:document-rotation="0"
     showgrid="false"
     fit-margin-top="0"
     fit-margin-left="0"
     fit-margin-right="0"
     fit-margin-bottom="0"
     inkscape:window-width="1543"
     inkscape:window-height="882"
     inkscape:window-x="0"
     inkscape:window-y="0"
     inkscape:window-maximized="0" />
  <metadata
     id="metadata860">
    <rdf:RDF>
      <cc:Work
         rdf:about="">
        <dc:format>image/svg+xml</dc:format>
        <dc:type
           rdf:resource="http://purl.org/dc/dcmitype/StillImage" />
        <dc:title></dc:title>
      </cc:Work>
    </rdf:RDF>
  </metadata>
  <g
     inkscape:label="Layer 1"
     inkscape:groupmode="layer"
     id="layer1"
     transform="translate(-43.291895,-78.065701)">
    <path
       id="path1030"
       style="color:#000000;font-style:normal;font-variant:normal;font-weight:normal;font-stretch:normal;font-size:medium;line-height:normal;font-family:sans-serif;font-variant-ligatures:normal;font-variant-position:normal;font-variant-caps:normal;font-variant-numeric:normal;font-variant-alternates:normal;font-variant-east-asian:normal;font-feature-settings:normal;font-variation-settings:normal;text-indent:0;text-align:start;text-decoration:none;text-decoration-line:none;text-decoration-style:solid;text-decoration-color:#000000;letter-spacing:normal;word-spacing:normal;text-transform:none;writing-mode:lr-tb;direction:ltr;text-orientation:mixed;dominant-baseline:auto;baseline-shift:baseline;text-anchor:start;white-space:normal;shape-padding:0;shape-margin:0;inline-size:0;clip-rule:nonzero;display:inline;overflow:visible;visibility:visible;opacity:1;isolation:auto;mix-blend-mode:normal;color-interpolation:sRGB;color-interpolation-filters:linearRGB;solid-color:#000000;solid-opacity:1;vector-effect:none;fill:#000000;fill-opacity:1;fill-rule:nonzero;stroke:none;stroke-width:7.64646;stroke-linecap:butt;stroke-linejoin:miter;stroke-miterlimit:4;stroke-dasharray:none;stroke-dashoffset:0;stroke-opacity:1;color-rendering:auto;image-rendering:auto;shape-rendering:auto;text-rendering:auto;enable-background:accumulate;stop-color:#000000;stop-opacity:1"
       d="m 71.815738,78.065701 c -15.707942,0 -28.523846,12.81591 -28.523843,28.523839 5e-6,15.70794 12.815911,28.52333 28.523843,28.52333 15.707929,0 28.523312,-12.8154 28.523322,-28.52333 0,-15.707929 -12.815393,-28.523839 -28.523322,-28.523839 z m 0,6.7815 c 12.002799,0 21.743889,9.73954 21.743889,21.742339 0,12.00281 -9.74109,21.74183 -21.743889,21.74183 -12.002801,0 -21.742342,-9.73902 -21.742345,-21.74183 3e-6,-12.002799 9.739544,-21.742339 21.742345,-21.742339 z M 82.880697,101.7888 c -3.191639,0.006 -4.532931,2.444 -6.00997,5.24723 -1.056749,2.02289 -2.076921,5.78288 -0.936379,7.05796 0.776478,1.32418 2.907749,2.71559 4.340309,3.25355 -0.0797,0.63718 -0.162271,1.22525 -0.162271,1.22525 l -0.800468,0.32763 c -1.20383,0.63628 -2.387341,1.50897 -3.350702,2.08876 -1.698818,0.95929 -1.919578,2.74561 -2.367288,4.05247 -0.360751,1.01179 -0.389342,1.93232 -0.605131,2.35799 6.232271,-0.34546 11.727921,-3.42764 15.315861,-8.06307 -0.91005,-0.72246 -1.767112,-0.59776 -2.378151,-0.98651 l 0.12919,-0.72967 c 0.594271,-0.11831 1.323549,-0.49534 2.321301,-1.29708 1.194398,-1.44055 2.233089,-3.61865 2.295988,-5.69009 0.67079,-4.42122 -3.113079,-8.70656 -7.47758,-8.83718 -0.106878,-0.005 -0.211759,-0.007 -0.314709,-0.007 z m -22.22397,0.0114 c -3.054801,-0.0607 -6.191674,2.1631 -7.257955,5.02192 -0.88518,2.66934 -0.600779,5.33216 0.597381,7.72562 0.426667,0.69309 0.984436,1.44849 0.984436,1.44849 0.624827,0.73129 1.179157,1.0427 1.791617,1.33481 0.5696,0.27167 0.87518,0.3101 0.91778,1.13223 -0.87129,0.0928 -1.62218,0.40562 -2.360581,0.8754 3.593112,4.64147 9.098892,7.72526 15.342211,8.06255 -0.0254,-0.16341 -0.069,-0.38694 -0.174659,-0.7121 -0.32819,-1.33718 -0.485619,-1.71773 -0.73432,-2.50217 -0.4648,-1.2339 -0.73948,-2.14879 -1.89963,-2.97863 -1.15507,-1.05547 -2.96059,-2.00019 -4.36046,-2.56522 0,0 -0.094,-0.7543 -0.19637,-1.28674 1.10652,-0.42756 4.25989,-2.09956 4.86534,-4.27984 0.24663,-3.11063 -1.86618,-8.11817 -4.56716,-10.39317 -0.92035,-0.58903 -1.92936,-0.86292 -2.94763,-0.88315 z m 2.95434,4.29173 c 0.18233,-0.001 0.40713,0.10928 0.63976,0.36432 0.30668,0.46934 0.73417,1.53336 0.14314,1.83658 -0.69096,-0.016 -0.79104,-0.54933 -1.01286,-0.94723 -0.36822,-0.71177 -0.17116,-1.25138 0.22996,-1.25367 z m 16.36645,0.0274 c 0.276331,-0.0278 0.492789,0.16483 0.398939,0.71985 -0.221898,0.6843 -0.460428,1.40618 -1.117759,1.45263 h -5.29e-4 c -0.661408,-0.2409 -0.275019,-1.04248 -0.0398,-1.5689 0.146241,-0.32751 0.482791,-0.57583 0.75913,-0.60358 z" />
  </g>
</svg>
