<?xml version="1.0" encoding="UTF-8" standalone="no"?>
<svg
   xmlns:dc="http://purl.org/dc/elements/1.1/"
   xmlns:cc="http://creativecommons.org/ns#"
   xmlns:rdf="http://www.w3.org/1999/02/22-rdf-syntax-ns#"
   xmlns:svg="http://www.w3.org/2000/svg"
   xmlns="http://www.w3.org/2000/svg"
   xmlns:sodipodi="http://sodipodi.sourceforge.net/DTD/sodipodi-0.dtd"
   xmlns:inkscape="http://www.inkscape.org/namespaces/inkscape"
   version="1.1"
   id="Layer_1"
   x="0px"
   y="0px"
   width="128.9285"
   height="145.69"
   viewBox="0 0 257.85699 291.38001"
   enable-background="new 0 0 1000 291.379"
   xml:space="preserve"
   sodipodi:docname="tiktok.svg"
   inkscape:version="1.0.1 (3bc2e813f5, 2020-09-07)"><metadata
   id="metadata23"><rdf:RDF><cc:Work
       rdf:about=""><dc:format>image/svg+xml</dc:format><dc:type
         rdf:resource="http://purl.org/dc/dcmitype/StillImage" /><dc:title></dc:title></cc:Work></rdf:RDF></metadata><defs
   id="defs21">
	
	
	
	
	
	
	
</defs><sodipodi:namedview
   pagecolor="#ffffff"
   bordercolor="#666666"
   borderopacity="1"
   objecttolerance="10"
   gridtolerance="10"
   guidetolerance="10"
   inkscape:pageopacity="0"
   inkscape:pageshadow="2"
   inkscape:window-width="1920"
   inkscape:window-height="1007"
   id="namedview19"
   showgrid="false"
   inkscape:zoom="2.67"
   inkscape:cx="250"
   inkscape:cy="72.844749"
   inkscape:window-x="0"
   inkscape:window-y="0"
   inkscape:window-maximized="1"
   inkscape:current-layer="Layer_1"
   fit-margin-top="0"
   fit-margin-left="0"
   fit-margin-right="0"
   fit-margin-bottom="0" />
<path
   fill="#ff004f"
   d="m 191.102,105.182 c 18.814,13.442 41.862,21.351 66.755,21.351 V 78.656 c -4.711,10e-4 -9.41,-0.49 -14.019,-1.466 v 37.686 c -24.891,0 -47.936,-7.909 -66.755,-21.35 v 97.703 c 0,48.876 -39.642,88.495 -88.54,88.495 -18.245,0 -35.203,-5.513 -49.29,-14.968 16.078,16.431 38.5,26.624 63.306,26.624 48.901,0 88.545,-39.619 88.545,-88.497 V 105.182 Z M 208.396,56.88 C 198.781,46.381 192.468,32.813 191.102,17.813 v -6.158 h -13.285 c 3.344,19.065 14.75,35.353 30.579,45.225 z M 70.181,227.25 c -5.372,-7.04 -8.275,-15.652 -8.262,-24.507 0,-22.354 18.132,-40.479 40.502,-40.479 4.169,-0.001 8.313,0.637 12.286,1.897 v -48.947 c -4.643,-0.636 -9.329,-0.906 -14.013,-0.807 v 38.098 c -3.976,-1.26 -8.122,-1.9 -12.292,-1.896 -22.37,0 -40.501,18.123 -40.501,40.48 0,15.808 9.063,29.494 22.28,36.161 z"
   id="path2" /><path
   d="m 177.083,93.525 c 18.819,13.441 41.864,21.35 66.755,21.35 V 77.189 C 229.944,74.231 217.644,66.974 208.396,56.88 192.566,47.007 181.161,30.719 177.817,11.655 h -34.896 v 191.226 c -0.079,22.293 -18.18,40.344 -40.502,40.344 -13.154,0 -24.84,-6.267 -32.241,-15.975 -13.216,-6.667 -22.279,-20.354 -22.279,-36.16 0,-22.355 18.131,-40.48 40.501,-40.48 4.286,0 8.417,0.667 12.292,1.896 v -38.098 c -48.039,0.992 -86.674,40.224 -86.674,88.474 0,24.086 9.621,45.921 25.236,61.875 14.087,9.454 31.045,14.968 49.29,14.968 48.899,0 88.54,-39.621 88.54,-88.496 V 93.525 Z"
   id="path4"
   style="fill:#ffffff" /><path
   fill="#00f2ea"
   d="m 243.838,77.189 v -10.19 c -12.529,0.019 -24.812,-3.488 -35.442,-10.12 9.41,10.297 21.801,17.397 35.442,20.31 z M 177.817,11.655 C 177.498,9.833 177.253,7.999 177.083,6.158 V 0 h -48.182 v 191.228 c -0.077,22.29 -18.177,40.341 -40.501,40.341 -6.554,0 -12.742,-1.555 -18.222,-4.318 7.401,9.707 19.087,15.973 32.241,15.973 22.32,0 40.424,-18.049 40.502,-40.342 V 11.655 Z M 100.694,114.408 V 103.56 C 96.668,103.01 92.609,102.734 88.545,102.736 39.642,102.735 0,142.356 0,191.228 c 0,30.64 15.58,57.643 39.255,73.527 -15.615,-15.953 -25.236,-37.789 -25.236,-61.874 0,-48.249 38.634,-87.481 86.675,-88.473 z"
   id="path6" />
</svg>
